<?xml version="1.0" encoding="UTF-8" standalone="no"?>
<svg
   xmlns:dc="http://purl.org/dc/elements/1.1/"
   xmlns:cc="http://creativecommons.org/ns#"
   xmlns:rdf="http://www.w3.org/1999/02/22-rdf-syntax-ns#"
   xmlns:svg="http://www.w3.org/2000/svg"
   xmlns="http://www.w3.org/2000/svg"
   xmlns:sodipodi="http://sodipodi.sourceforge.net/DTD/sodipodi-0.dtd"
   xmlns:inkscape="http://www.inkscape.org/namespaces/inkscape"
   width="24"
   height="24"
   viewBox="0 0 24 24"
   version="1.1"
   id="svg845"
   sodipodi:docname="icon.svg"
   inkscape:version="1.0.1 (3bc2e813f5, 2020-09-07)">
  <metadata
     id="metadata851">
    <rdf:RDF>
      <cc:Work
         rdf:about="">
        <dc:format>image/svg+xml</dc:format>
        <dc:type
           rdf:resource="http://purl.org/dc/dcmitype/StillImage" />
        <dc:title />
      </cc:Work>
    </rdf:RDF>
  </metadata>
  <defs
     id="defs849" />
  <sodipodi:namedview
     pagecolor="#ffffff"
     bordercolor="#666666"
     borderopacity="1"
     objecttolerance="10"
     gridtolerance="10"
     guidetolerance="10"
     inkscape:pageopacity="0"
     inkscape:pageshadow="2"
     inkscape:window-width="1920"
     inkscape:window-height="1017"
     id="namedview847"
     showgrid="false"
     inkscape:zoom="24.365721"
     inkscape:cx="14.557749"
     inkscape:cy="16.272803"
     inkscape:window-x="-8"
     inkscape:window-y="-8"
     inkscape:window-maximized="1"
     inkscape:current-layer="g1447"
     inkscape:document-rotation="0" />
  <g
     id="g1447">
    <rect
       style="opacity:0.01;fill:#ffeaea;fill-opacity:0.01;stroke:none;stroke-width:1.06955;stroke-linecap:round;stroke-opacity:1"
       id="rect849"
       width="24.041277"
       height="24.091215"
       x="0.04994183"
       y="0"
       inkscape:export-xdpi="511.12"
       inkscape:export-ydpi="511.12" />
    <path
       d="m 11.158415,4.441036 c -2.1292619,0 -3.4600502,1.0646304 -3.9923659,3.1938922 0.7984736,-1.0646311 1.7300251,-1.4638677 2.7946556,-1.1977099 0.6074313,0.1517098 1.0415643,0.5926454 1.5221263,1.080304 0.7828,0.7946289 1.688918,1.714351 3.667949,1.714351 2.129261,0 3.460049,-1.0646296 3.992365,-3.1938916 C 18.344672,7.1026127 17.41312,7.5018492 16.348489,7.2356915 15.741059,7.0839807 15.306925,6.6430472 14.826365,6.1553865 14.043563,5.3607581 13.137444,4.441036 11.158415,4.441036 Z M 7.1660491,9.2318733 c -2.1292623,0 -3.4600506,1.0646307 -3.9923659,3.1938927 0.798473,-1.064631 1.7300249,-1.463867 2.7946555,-1.19771 0.607431,0.152007 1.0415639,0.592645 1.5221274,1.080306 0.7827988,0.794628 1.6889185,1.714351 3.6679489,1.714351 2.129261,0 3.460049,-1.064631 3.992365,-3.193893 -0.798474,1.064631 -1.730026,1.463867 -2.794655,1.197711 C 11.748692,11.87482 11.31456,11.433885 10.833997,10.946226 10.051198,10.151597 9.1450794,9.2318733 7.1660491,9.2318733 Z"
       id="path843"
       style="fill:#666666;stroke-width:0.680556"
       inkscape:export-xdpi="513.63678"
       inkscape:export-ydpi="513.63678" />
    <path
       style="fill:#666666;fill-opacity:1;fill-rule:evenodd;stroke:none;stroke-width:1.02628px;stroke-linecap:butt;stroke-linejoin:miter;stroke-opacity:1"
       d="m 15.148972,21.894278 0.499567,-7.770916 7.412997,2.104233 -3.430191,2.456573 3.290242,4.232569 -1.385305,0.992105 -2.947803,-4.477811 z"
       id="path840"
       sodipodi:nodetypes="cccccccc" />
    <path
       style="fill:none;fill-rule:evenodd;stroke:#666666;stroke-width:1.634;stroke-linecap:butt;stroke-linejoin:miter;stroke-miterlimit:4;stroke-dasharray:none;stroke-opacity:1"
       d="M 20.888154,13.928504 V 1.7285122 H 1.6077717 V 17.902873 H 14.157902"
       id="path842"
       sodipodi:nodetypes="ccccc" />
    <path
       id="path1983"
       style="fill:#ffeaea;fill-opacity:1;fill-rule:evenodd;stroke:none;stroke-width:2.31778px;stroke-linecap:butt;stroke-linejoin:miter;stroke-opacity:1"
       d="M 47.126948,0.36597135 35.587829,2.2280103 v 3.7240805 l 5.770484,-1.8620389 -5.770484,7.4500021 v 3.724081 L 47.126948,4.0900519 Z M 34.122165,2.482428 29.207116,3.2512098 27.568154,23.027549 34.122165,16.66343 Z"
       inkscape:export-filename="P:\projects\buglink\redevtools.com\wordpress-theme\img\logow.png"
       inkscape:export-xdpi="513.63678"
       inkscape:export-ydpi="513.63678" />
  </g>
</svg>
